<svg xmlns="http://www.w3.org/2000/svg" viewBox="0 0 182 93" width="182" height="93">
  <path d="M 103 76 L 106 76 L 107 74 L 104 74 Z M 158 67 L 158 69 L 160 70 L 161 69 L 161 67 Z M 74 66 L 73 68 L 74 70 L 76 70 L 76 67 Z M 36 66 L 36 67 L 40 67 L 40 65 L 37 65 Z M 23 71 L 23 76 L 24 77 L 24 79 L 32 85 L 42 85 L 43 84 L 47 84 L 49 81 L 51 81 L 55 74 L 57 75 L 58 78 L 61 82 L 63 82 L 65 85 L 67 85 L 68 86 L 74 85 L 77 81 L 82 77 L 84 73 L 86 74 L 87 78 L 89 80 L 93 81 L 100 85 L 107 85 L 111 83 L 115 78 L 114 61 L 110 57 L 108 57 L 107 56 L 105 56 L 104 57 L 99 56 L 97 58 L 94 59 L 88 65 L 88 68 L 86 70 L 84 69 L 84 65 L 82 61 L 79 58 L 77 58 L 76 57 L 69 57 L 68 56 L 62 56 L 60 57 L 57 60 L 57 64 L 55 66 L 55 68 L 54 69 L 50 66 L 49 62 L 45 58 L 43 57 L 34 57 L 29 60 L 27 63 L 26 67 Z M 95 60 L 99 61 L 100 60 L 102 60 L 103 58 L 105 58 L 106 59 L 108 59 L 112 63 L 113 65 L 113 69 L 114 70 L 114 77 L 112 80 L 106 84 L 101 84 L 93 80 L 90 77 L 89 75 L 89 69 L 93 66 L 92 63 Z M 35 58 L 42 58 L 44 59 L 47 62 L 51 70 L 51 75 L 48 80 L 42 80 L 42 83 L 41 84 L 36 84 L 35 83 L 35 81 L 30 81 L 27 78 L 25 74 L 28 64 Z M 66 57 L 68 58 L 75 58 L 79 60 L 83 66 L 83 72 L 82 74 L 72 83 L 67 83 L 64 81 L 64 79 L 63 79 L 62 77 L 60 77 L 57 73 L 57 71 L 58 70 L 60 70 L 58 65 L 59 62 L 62 59 Z M 173 45 L 170 43 L 167 43 L 164 47 L 164 56 L 163 57 L 158 57 L 157 56 L 157 54 L 160 52 L 161 50 L 161 43 L 157 40 L 155 40 L 154 41 L 127 41 L 126 42 L 122 42 L 120 44 L 120 51 L 121 53 L 124 54 L 125 56 L 123 57 L 119 62 L 118 76 L 120 80 L 123 83 L 127 85 L 134 85 L 140 81 L 144 80 L 147 76 L 147 69 L 146 68 L 146 66 L 140 59 L 136 58 L 134 55 L 136 53 L 152 53 L 156 56 L 156 58 L 152 61 L 150 66 L 150 73 L 151 75 L 158 82 L 158 83 L 161 85 L 172 85 L 173 86 L 175 86 L 175 50 Z M 128 58 L 130 58 L 131 60 L 135 60 L 136 59 L 139 60 L 141 62 L 142 67 L 144 67 L 145 68 L 145 74 L 144 76 L 140 80 L 137 81 L 133 84 L 128 84 L 124 82 L 121 79 L 119 75 L 121 64 Z M 168 57 L 174 61 L 174 75 L 172 76 L 172 80 L 167 83 L 162 83 L 152 74 L 151 72 L 151 66 L 157 59 L 159 58 L 165 58 L 166 57 Z M 146 49 L 147 48 L 149 48 L 151 49 L 152 51 L 151 52 L 147 52 L 146 51 Z M 127 45 L 129 46 L 129 50 L 130 51 L 129 53 L 127 53 L 126 52 L 126 46 Z M 122 45 L 124 45 L 125 46 L 125 51 L 124 52 L 121 50 L 121 46 Z M 146 43 L 147 42 L 158 42 L 160 44 L 160 46 L 159 47 L 158 47 L 157 45 L 149 45 L 147 46 L 146 45 Z M 139 43 L 140 42 L 144 42 L 145 44 L 144 45 L 140 45 Z M 128 43 L 129 42 L 136 42 L 137 43 L 137 45 L 136 46 L 133 46 L 132 45 L 129 45 Z M 8 36 L 8 37 L 154 37 L 154 36 Z M 71 32 L 73 33 L 76 33 L 77 32 L 80 33 L 80 29 L 82 28 L 83 29 L 83 33 L 87 33 L 87 29 L 88 28 L 90 29 L 90 32 L 91 32 L 91 30 L 93 28 L 95 28 L 96 29 L 96 33 L 98 33 L 99 32 L 102 33 L 102 29 L 104 28 L 106 31 L 106 33 L 108 33 L 109 32 L 114 33 L 116 32 L 117 30 L 118 30 L 119 31 L 119 33 L 120 33 L 120 30 L 121 29 L 124 29 L 125 30 L 125 33 L 126 33 L 127 24 L 126 24 L 126 26 L 125 27 L 120 27 L 119 26 L 116 27 L 115 26 L 113 26 L 110 28 L 108 27 L 107 25 L 106 25 L 105 27 L 101 27 L 100 26 L 98 26 L 97 27 L 91 27 L 90 26 L 88 26 L 87 25 L 87 23 L 86 23 L 86 26 L 84 27 L 83 26 L 81 26 L 80 24 L 74 23 L 73 24 L 73 28 L 74 28 L 76 31 L 75 32 L 71 31 Z M 112 29 L 114 28 L 115 30 L 113 31 Z M 107 29 L 108 28 L 110 28 L 111 30 L 110 31 L 108 31 Z M 75 26 L 76 25 L 78 25 L 79 27 L 78 28 L 76 28 Z M 11 14 L 11 20 L 10 21 L 10 29 L 11 30 L 15 30 L 16 31 L 29 31 L 30 30 L 30 22 L 31 21 L 30 19 L 30 13 L 24 13 L 23 12 L 23 10 L 19 10 L 19 12 L 18 13 Z M 14 16 L 15 15 L 26 16 L 27 17 L 27 27 L 26 28 L 15 28 L 14 27 L 14 25 L 15 24 L 20 24 L 20 21 L 15 21 L 14 20 Z M 42 11 L 44 27 L 43 28 L 41 28 L 41 31 L 42 32 L 44 32 L 45 31 L 57 30 L 58 32 L 62 32 L 62 23 L 57 23 L 56 22 L 56 19 L 57 18 L 59 18 L 60 16 L 59 9 L 58 8 L 55 8 L 54 6 L 51 6 L 50 8 L 46 8 L 46 10 L 45 11 Z M 56 27 L 58 26 L 59 28 L 57 29 Z M 51 12 L 52 11 L 55 11 L 57 13 L 57 15 L 56 16 L 52 16 L 51 15 Z M 0 1 L 0 92 L 181 92 L 181 0 L 1 0 Z M 2 2 L 3 1 L 179 1 L 180 2 L 180 89 L 179 90 L 3 90 L 2 89 Z" fill="black" fill-rule="evenodd"/>
</svg>
