<svg xmlns="http://www.w3.org/2000/svg" viewBox="0 0 182 93" width="182" height="93">
  <path d="M 155 55 L 155 60 L 157 59 L 161 60 L 160 55 Z M 166 52 L 164 51 L 163 52 L 163 54 L 165 54 Z M 151 51 L 150 52 L 150 54 L 153 54 L 153 52 Z M 138 42 L 138 55 L 140 55 L 140 42 Z M 111 42 L 108 45 L 108 53 L 110 55 L 116 56 L 118 55 L 118 53 L 114 54 L 110 50 L 110 48 L 113 44 L 118 45 L 118 42 Z M 94 42 L 94 54 L 97 56 L 99 56 L 100 55 L 105 55 L 105 42 L 102 42 L 102 51 L 100 53 L 98 53 L 96 51 L 96 42 Z M 81 42 L 79 44 L 79 47 L 78 48 L 79 53 L 81 55 L 86 55 L 87 57 L 85 59 L 80 59 L 80 61 L 87 61 L 89 60 L 90 58 L 90 42 Z M 84 44 L 88 47 L 88 50 L 85 53 L 83 53 L 81 50 L 81 47 Z M 65 43 L 65 45 L 67 45 L 68 44 L 71 44 L 72 45 L 71 47 L 68 47 L 65 49 L 64 51 L 65 55 L 67 56 L 76 55 L 76 53 L 75 52 L 75 43 L 73 42 L 67 42 Z M 67 52 L 69 49 L 72 49 L 73 50 L 71 53 L 68 53 Z M 44 42 L 44 45 L 45 46 L 45 49 L 46 50 L 47 55 L 51 55 L 51 52 L 52 51 L 55 53 L 55 55 L 59 55 L 60 49 L 62 45 L 62 42 L 59 42 L 59 45 L 58 46 L 56 46 L 55 45 L 55 42 L 51 42 L 51 44 L 49 47 L 47 46 L 47 42 Z M 30 43 L 31 45 L 33 44 L 37 44 L 38 45 L 37 47 L 33 47 L 30 49 L 30 54 L 32 56 L 41 55 L 41 45 L 40 43 L 38 42 L 32 42 Z M 32 52 L 32 51 L 35 49 L 37 49 L 38 50 L 35 54 Z M 138 36 L 138 39 L 140 39 L 140 36 Z M 122 36 L 122 55 L 125 55 L 125 46 L 127 44 L 129 44 L 131 47 L 131 55 L 133 55 L 133 44 L 131 42 L 126 42 L 125 41 L 125 36 Z M 16 36 L 16 55 L 18 55 L 18 53 L 19 52 L 23 55 L 26 55 L 21 48 L 24 46 L 27 42 L 24 42 L 21 45 L 19 45 L 18 44 L 18 36 Z M 150 35 L 150 46 L 152 45 L 152 37 L 153 36 L 155 37 L 155 46 L 160 46 L 161 45 L 161 37 L 162 36 L 164 37 L 164 46 L 166 45 L 166 36 L 165 34 L 161 33 L 157 36 L 156 34 L 152 33 Z M 0 0 L 0 92 L 181 92 L 181 0 Z M 1 3 L 2 2 L 179 2 L 180 3 L 180 90 L 179 91 L 2 91 L 1 90 Z" fill="black" fill-rule="evenodd"/>
</svg>
