<svg xmlns="http://www.w3.org/2000/svg" viewBox="0 0 182 93" width="182" height="93">
  <path d="M 12 45 L 12 55 L 13 55 L 13 52 L 14 51 L 15 51 L 18 55 L 23 55 L 24 54 L 26 55 L 30 55 L 31 54 L 38 55 L 40 54 L 44 56 L 46 55 L 49 50 L 51 51 L 51 53 L 53 55 L 55 55 L 57 53 L 60 55 L 67 55 L 67 51 L 68 50 L 70 51 L 70 54 L 71 55 L 74 55 L 74 53 L 75 52 L 75 45 L 74 45 L 74 47 L 72 49 L 69 48 L 68 47 L 68 45 L 67 45 L 65 48 L 60 48 L 59 49 L 57 49 L 56 48 L 51 49 L 49 48 L 47 50 L 46 50 L 45 48 L 44 48 L 43 50 L 40 48 L 37 48 L 36 49 L 31 48 L 30 47 L 30 45 L 29 45 L 29 48 L 28 49 L 23 48 L 20 50 L 19 49 L 19 45 L 18 45 L 18 48 L 17 49 L 16 49 L 15 47 Z M 57 51 L 59 50 L 60 52 L 58 53 Z M 43 50 L 45 51 L 45 53 L 44 54 L 42 54 L 41 53 Z M 71 50 L 73 49 L 74 51 L 72 52 Z M 62 50 L 63 49 L 65 49 L 66 51 L 65 52 L 63 52 Z M 54 49 L 56 50 L 56 52 L 55 53 L 53 53 L 52 52 Z M 32 50 L 34 49 L 35 50 L 35 52 L 33 53 L 32 52 Z M 47 16 L 47 18 L 57 18 L 58 19 L 58 22 L 57 23 L 50 23 L 50 26 L 51 27 L 51 39 L 68 39 L 68 29 L 67 27 L 69 26 L 69 23 L 62 23 L 61 22 L 61 19 L 62 18 L 72 18 L 72 16 L 62 16 L 60 12 L 58 13 L 58 15 L 57 16 Z M 53 32 L 54 31 L 65 31 L 66 32 L 66 35 L 65 36 L 54 36 L 53 35 Z M 26 12 L 26 16 L 25 17 L 17 17 L 16 18 L 16 30 L 18 31 L 25 31 L 26 32 L 26 39 L 27 40 L 29 40 L 29 32 L 30 31 L 38 31 L 39 30 L 39 18 L 38 17 L 30 17 L 29 16 L 29 12 Z M 29 21 L 30 20 L 36 20 L 37 21 L 37 27 L 36 28 L 30 28 L 29 27 Z M 20 20 L 25 20 L 26 21 L 26 27 L 25 28 L 20 28 L 18 26 L 18 22 Z M 0 0 L 0 92 L 181 92 L 181 0 Z M 180 85 L 180 90 L 179 91 L 2 91 L 1 90 L 1 85 L 2 84 L 107 84 L 112 86 L 117 86 L 124 83 L 128 79 L 130 75 L 130 69 L 129 68 L 129 66 L 121 57 L 121 54 L 123 52 L 125 52 L 127 54 L 128 58 L 135 58 L 135 55 L 138 52 L 140 52 L 142 54 L 141 58 L 133 67 L 133 76 L 135 80 L 140 84 L 145 85 L 146 86 L 151 86 L 156 84 L 179 84 Z M 112 52 L 116 52 L 117 53 L 118 60 L 127 70 L 127 73 L 125 77 L 122 80 L 118 82 L 116 82 L 115 81 L 117 77 L 117 68 L 112 60 L 112 56 L 111 55 L 111 53 Z M 146 51 L 151 53 L 151 58 L 145 70 L 145 76 L 148 81 L 147 82 L 144 82 L 137 76 L 136 74 L 136 69 L 145 59 L 145 52 Z M 1 2 L 2 1 L 179 1 L 180 2 L 180 80 L 179 81 L 171 81 L 170 80 L 171 78 L 171 64 L 170 63 L 169 57 L 166 51 L 158 42 L 154 41 L 152 39 L 149 38 L 149 41 L 147 43 L 146 47 L 144 50 L 140 48 L 137 48 L 135 49 L 132 53 L 125 48 L 119 49 L 116 46 L 116 44 L 113 41 L 113 39 L 110 39 L 108 41 L 106 41 L 101 45 L 93 58 L 93 60 L 92 61 L 92 66 L 91 67 L 91 77 L 92 78 L 92 80 L 91 81 L 2 81 L 1 80 Z" fill="black" fill-rule="evenodd"/>
</svg>
