<svg xmlns="http://www.w3.org/2000/svg" viewBox="0 0 182 93" width="182" height="93">
  <path d="M 77 58 L 78 60 L 82 60 L 83 59 L 83 58 L 81 59 Z M 95 51 L 95 60 L 96 60 L 97 58 L 101 60 L 101 59 L 97 55 L 99 52 Z M 10 38 L 10 46 L 11 47 L 11 50 L 12 51 L 13 56 L 16 61 L 15 63 L 15 70 L 18 75 L 18 79 L 20 83 L 23 85 L 28 86 L 28 84 L 26 84 L 25 83 L 25 80 L 27 78 L 31 81 L 33 85 L 37 85 L 38 83 L 41 85 L 48 85 L 50 82 L 52 82 L 53 81 L 58 81 L 59 83 L 58 84 L 55 84 L 55 87 L 57 87 L 62 83 L 77 83 L 78 84 L 78 87 L 82 87 L 88 82 L 91 83 L 93 87 L 101 86 L 102 85 L 103 85 L 104 87 L 106 87 L 107 86 L 110 86 L 112 82 L 112 80 L 110 78 L 105 78 L 103 79 L 100 77 L 99 75 L 96 75 L 95 76 L 87 76 L 86 75 L 86 73 L 84 73 L 82 76 L 79 76 L 79 79 L 75 82 L 68 82 L 64 78 L 64 76 L 63 75 L 62 75 L 61 76 L 61 78 L 59 79 L 57 77 L 57 74 L 54 74 L 54 77 L 52 78 L 51 77 L 51 75 L 49 74 L 50 72 L 49 70 L 45 68 L 41 68 L 29 57 L 17 57 L 14 52 L 14 50 L 12 46 L 12 41 L 11 40 L 11 38 Z M 52 79 L 51 81 L 47 81 L 45 83 L 43 83 L 40 80 L 41 78 L 44 78 L 46 75 L 48 76 L 48 78 L 51 78 Z M 172 35 L 171 35 L 171 43 L 165 51 L 163 51 L 162 52 L 162 54 L 164 54 L 165 55 L 165 57 L 163 59 L 160 59 L 158 56 L 153 56 L 149 54 L 148 56 L 149 62 L 147 64 L 145 64 L 138 68 L 134 73 L 134 75 L 128 80 L 124 82 L 121 82 L 120 80 L 122 79 L 123 76 L 119 73 L 114 73 L 113 77 L 115 80 L 117 80 L 118 81 L 115 85 L 124 84 L 133 80 L 136 83 L 136 85 L 138 85 L 139 86 L 146 86 L 146 83 L 148 82 L 148 78 L 149 77 L 151 77 L 154 82 L 154 84 L 158 84 L 158 82 L 156 81 L 156 76 L 158 75 L 156 63 L 159 59 L 160 59 L 161 61 L 163 61 L 164 63 L 161 67 L 161 70 L 163 70 L 163 67 L 165 65 L 168 59 L 170 60 L 170 62 L 172 62 L 172 59 L 169 59 L 168 58 L 169 55 L 170 54 L 172 54 Z M 63 21 L 63 23 L 66 23 L 67 24 L 67 26 L 62 31 L 62 33 L 64 33 L 65 32 L 67 33 L 67 40 L 69 40 L 69 31 L 70 30 L 72 30 L 73 31 L 73 40 L 89 40 L 91 38 L 94 39 L 103 30 L 105 31 L 105 40 L 107 40 L 107 30 L 108 29 L 113 32 L 117 36 L 119 37 L 121 36 L 120 34 L 119 34 L 111 27 L 109 28 L 107 27 L 107 24 L 108 23 L 115 23 L 116 22 L 119 22 L 119 20 L 108 20 L 107 19 L 107 13 L 105 13 L 105 20 L 104 21 L 94 21 L 94 23 L 103 23 L 104 25 L 91 38 L 89 38 L 88 37 L 88 23 L 85 23 L 84 22 L 85 20 L 89 20 L 91 19 L 91 18 L 85 18 L 84 17 L 84 13 L 82 13 L 82 17 L 81 18 L 75 18 L 73 21 L 70 21 L 69 20 L 69 13 L 67 13 L 67 20 L 66 21 Z M 84 25 L 86 26 L 86 33 L 85 34 L 83 33 L 83 26 Z M 69 26 L 69 24 L 70 23 L 73 23 L 73 21 L 74 20 L 81 20 L 82 21 L 81 23 L 76 23 L 76 25 L 75 26 L 73 26 L 72 27 L 70 27 Z M 0 1 L 0 92 L 181 92 L 181 0 L 1 0 Z M 1 3 L 2 2 L 179 2 L 180 3 L 180 90 L 179 91 L 2 91 L 1 90 Z" fill="black" fill-rule="evenodd"/>
</svg>
