<svg xmlns="http://www.w3.org/2000/svg" viewBox="0 0 182 93" width="182" height="93">
  <path d="M 174 50 L 171 44 L 166 43 L 163 47 L 163 54 L 160 56 L 157 56 L 156 54 L 159 52 L 160 50 L 160 43 L 156 40 L 154 40 L 153 41 L 126 41 L 125 42 L 121 42 L 119 44 L 119 51 L 120 53 L 124 54 L 125 56 L 120 58 L 120 61 L 118 63 L 118 65 L 117 66 L 114 64 L 114 62 L 109 56 L 101 53 L 98 53 L 97 54 L 92 55 L 87 60 L 85 65 L 84 65 L 82 61 L 74 54 L 63 54 L 58 57 L 54 63 L 51 63 L 46 57 L 42 55 L 35 54 L 34 55 L 28 56 L 23 61 L 21 66 L 21 74 L 23 78 L 27 82 L 31 84 L 40 84 L 48 80 L 48 78 L 50 76 L 50 73 L 52 68 L 53 67 L 55 67 L 56 68 L 56 69 L 54 70 L 54 74 L 57 79 L 61 81 L 64 84 L 70 84 L 74 82 L 81 81 L 82 80 L 83 75 L 85 74 L 96 86 L 98 86 L 99 84 L 104 84 L 108 82 L 114 76 L 117 76 L 119 79 L 124 83 L 126 83 L 127 84 L 136 84 L 141 82 L 144 79 L 145 76 L 148 74 L 151 80 L 158 85 L 167 85 L 169 84 L 172 86 L 174 86 Z M 102 68 L 105 72 L 105 76 L 106 78 L 105 79 L 103 79 L 104 81 L 103 83 L 96 83 L 93 81 L 93 77 L 94 76 L 98 76 L 98 74 L 95 75 L 94 74 L 94 72 Z M 126 66 L 128 68 L 131 69 L 133 71 L 133 73 L 129 76 L 127 79 L 124 77 L 124 79 L 122 80 L 118 75 L 117 69 L 118 68 L 122 68 L 124 71 L 126 71 L 126 70 L 124 69 L 124 67 Z M 70 66 L 74 66 L 79 69 L 79 71 L 81 70 L 83 71 L 81 76 L 76 81 L 73 79 L 73 76 L 74 75 L 73 73 L 72 73 L 72 75 L 71 76 L 69 76 L 68 75 L 69 73 L 69 67 Z M 171 62 L 173 65 L 173 76 L 168 80 L 168 82 L 166 84 L 159 84 L 157 83 L 150 76 L 150 74 L 151 73 L 156 73 L 157 74 L 162 74 L 163 73 L 165 73 L 168 75 L 167 72 L 165 70 L 165 66 L 168 63 Z M 46 59 L 50 64 L 50 70 L 49 71 L 46 71 L 44 68 L 42 68 L 44 71 L 43 72 L 41 72 L 35 68 L 35 66 L 39 62 L 40 62 L 41 60 L 44 62 L 44 60 Z M 155 58 L 157 58 L 160 60 L 158 63 L 158 66 L 159 66 L 159 64 L 161 62 L 163 63 L 163 71 L 161 73 L 158 73 L 155 71 L 153 71 L 152 70 L 152 68 L 150 68 L 149 67 L 150 63 Z M 129 58 L 134 58 L 135 59 L 137 59 L 142 64 L 143 66 L 143 72 L 145 73 L 143 78 L 138 82 L 136 82 L 135 83 L 129 83 L 128 81 L 134 74 L 135 69 L 136 68 L 138 68 L 138 67 L 131 67 L 128 63 L 128 59 Z M 90 63 L 95 58 L 97 58 L 98 57 L 102 57 L 107 60 L 110 59 L 113 63 L 113 65 L 114 66 L 113 74 L 110 78 L 106 75 L 106 71 L 102 66 L 102 62 L 101 62 L 99 66 L 95 69 L 89 66 Z M 81 62 L 82 64 L 81 66 L 76 66 L 75 65 L 69 65 L 67 66 L 64 64 L 67 70 L 67 72 L 63 76 L 60 76 L 59 75 L 57 70 L 57 66 L 59 62 L 65 58 L 65 56 L 66 55 L 73 55 Z M 35 55 L 37 55 L 39 57 L 39 60 L 35 63 L 33 69 L 32 70 L 30 70 L 30 71 L 35 71 L 39 74 L 40 78 L 38 81 L 35 81 L 30 79 L 26 75 L 25 73 L 25 67 L 23 66 L 24 62 L 29 57 L 34 56 Z M 138 54 L 139 53 L 151 53 L 154 57 L 149 59 L 149 64 L 147 65 L 145 61 L 140 56 L 139 56 Z M 145 49 L 146 48 L 148 48 L 149 49 L 149 51 L 148 52 L 146 52 L 145 51 Z M 126 45 L 128 46 L 128 50 L 129 51 L 128 53 L 126 53 L 125 52 L 125 46 Z M 121 45 L 123 45 L 124 46 L 124 51 L 123 52 L 120 50 L 120 46 Z M 145 43 L 146 42 L 157 42 L 159 44 L 159 46 L 158 47 L 157 47 L 156 45 L 148 45 L 146 46 L 145 45 Z M 138 43 L 139 42 L 143 42 L 144 44 L 143 45 L 139 45 Z M 127 43 L 128 42 L 135 42 L 136 43 L 136 45 L 135 46 L 132 46 L 131 45 L 128 45 Z M 7 36 L 7 37 L 153 37 L 153 36 L 74 36 L 73 34 L 74 33 L 76 33 L 76 28 L 75 27 L 72 27 L 71 28 L 69 27 L 60 27 L 59 25 L 58 25 L 58 27 L 57 28 L 53 27 L 52 25 L 44 25 L 44 29 L 46 30 L 46 31 L 44 32 L 45 35 L 44 36 L 34 36 L 33 34 L 34 33 L 34 29 L 35 28 L 35 19 L 33 18 L 33 10 L 29 10 L 28 8 L 24 8 L 23 10 L 20 10 L 19 12 L 17 12 L 16 11 L 16 9 L 13 9 L 13 11 L 12 12 L 10 12 L 10 29 L 12 29 L 13 27 L 17 27 L 18 28 L 17 33 L 18 33 L 19 35 L 18 36 Z M 20 34 L 21 33 L 27 33 L 28 35 L 27 36 L 21 36 Z M 47 34 L 48 33 L 52 33 L 52 30 L 54 29 L 55 30 L 55 33 L 71 33 L 72 35 L 71 36 L 48 36 Z M 47 27 L 48 26 L 50 26 L 51 28 L 50 29 L 48 29 Z M 0 1 L 0 92 L 181 92 L 181 0 L 1 0 Z M 1 2 L 2 1 L 179 1 L 180 2 L 180 89 L 179 90 L 2 90 L 1 89 Z" fill="black" fill-rule="evenodd"/>
</svg>
