<svg xmlns="http://www.w3.org/2000/svg" viewBox="0 0 182 93" width="182" height="93">
  <path d="M 139 52 L 139 54 L 142 58 L 150 58 L 151 56 L 153 55 L 153 52 L 151 52 L 151 55 L 150 56 L 148 55 L 147 52 L 145 52 L 145 54 L 144 55 L 142 54 L 142 52 Z M 117 44 L 115 44 L 115 57 L 117 56 Z M 78 44 L 75 47 L 73 51 L 73 55 L 74 56 L 83 55 L 85 57 L 87 57 L 87 55 L 85 53 L 86 46 L 83 44 Z M 81 46 L 83 49 L 78 54 L 77 54 L 76 53 L 76 50 L 79 46 Z M 39 44 L 36 47 L 36 53 L 38 56 L 44 56 L 47 52 L 47 46 L 45 44 Z M 41 46 L 43 46 L 45 48 L 45 51 L 42 54 L 40 54 L 38 52 L 38 49 Z M 105 44 L 102 44 L 100 46 L 98 46 L 97 44 L 95 43 L 95 46 L 96 47 L 96 57 L 98 57 L 99 51 L 102 47 L 106 49 L 106 45 Z M 118 38 L 116 38 L 115 40 L 117 41 L 118 40 Z M 58 38 L 56 38 L 56 54 L 55 55 L 56 57 L 59 56 L 65 50 L 65 48 L 66 47 L 65 44 L 59 44 L 58 43 Z M 62 46 L 63 48 L 62 50 L 59 52 L 58 51 L 58 49 Z M 21 37 L 20 37 L 20 43 L 18 48 L 18 50 L 19 51 L 19 57 L 21 56 L 21 54 L 22 53 L 25 55 L 28 55 L 28 53 L 25 52 L 23 50 L 23 49 L 28 45 L 28 43 L 22 46 L 21 45 L 22 43 L 22 38 Z M 128 40 L 129 43 L 126 45 L 127 49 L 125 50 L 125 52 L 127 53 L 126 57 L 129 59 L 128 61 L 129 63 L 135 62 L 135 61 L 133 61 L 132 60 L 133 57 L 131 56 L 131 46 L 132 45 L 134 45 L 136 48 L 138 48 L 139 46 L 141 47 L 146 45 L 148 46 L 152 46 L 152 44 L 154 43 L 155 44 L 154 48 L 156 48 L 157 47 L 157 43 L 158 42 L 160 43 L 160 45 L 161 46 L 161 56 L 160 57 L 160 60 L 159 61 L 157 61 L 157 62 L 160 62 L 161 63 L 163 63 L 164 62 L 163 59 L 166 57 L 165 53 L 167 52 L 167 50 L 165 49 L 166 45 L 163 43 L 164 40 L 160 38 L 160 35 L 156 36 L 155 35 L 155 32 L 151 33 L 149 30 L 148 30 L 147 32 L 145 32 L 144 30 L 143 30 L 141 33 L 137 32 L 137 35 L 136 36 L 132 35 L 132 38 Z M 137 44 L 139 43 L 140 45 L 138 46 Z M 138 37 L 139 36 L 141 37 L 143 36 L 149 36 L 150 37 L 153 36 L 154 37 L 154 40 L 149 44 L 147 43 L 143 44 L 141 41 L 139 41 L 138 40 Z M 0 1 L 0 92 L 181 92 L 181 0 L 1 0 Z M 1 3 L 2 2 L 179 2 L 180 3 L 180 90 L 179 91 L 2 91 L 1 90 Z" fill="black" fill-rule="evenodd"/>
</svg>
