<svg xmlns="http://www.w3.org/2000/svg" viewBox="0 0 182 93" width="182" height="93">
  <path d="M 152 54 L 152 56 L 154 58 L 163 58 L 165 55 L 164 53 L 161 55 L 160 54 L 160 52 L 157 52 L 155 54 Z M 163 47 L 163 50 L 165 50 L 166 48 L 165 47 Z M 152 47 L 151 49 L 152 50 L 154 50 L 154 47 Z M 136 44 L 132 44 L 128 47 L 127 49 L 127 54 L 128 55 L 130 54 L 133 55 L 136 53 L 135 51 Z M 132 46 L 133 47 L 133 49 L 132 51 L 130 52 L 129 51 L 129 49 L 130 47 Z M 108 44 L 103 44 L 99 48 L 99 50 L 98 51 L 98 54 L 99 55 L 101 55 L 102 54 L 105 55 L 108 53 L 108 52 L 106 51 Z M 104 46 L 105 48 L 104 50 L 101 52 L 100 50 L 101 48 Z M 66 45 L 66 46 L 68 47 L 67 52 L 66 53 L 67 55 L 69 54 L 73 55 L 76 53 L 76 52 L 74 51 L 76 44 L 74 44 L 73 49 L 71 51 L 69 50 L 70 48 L 70 44 Z M 52 44 L 51 45 L 51 47 L 52 47 L 53 49 L 50 51 L 48 54 L 53 54 L 54 55 L 56 55 L 58 54 L 59 51 L 57 51 L 56 53 L 54 53 L 53 51 L 59 45 L 59 44 Z M 33 45 L 33 46 L 35 47 L 34 52 L 33 53 L 34 55 L 36 54 L 40 55 L 43 53 L 43 52 L 41 51 L 43 44 L 41 44 L 40 49 L 38 51 L 36 50 L 37 48 L 37 44 Z M 123 43 L 121 44 L 117 44 L 114 46 L 114 47 L 116 48 L 115 54 L 117 54 L 118 49 L 122 45 L 123 45 Z M 27 40 L 24 39 L 23 40 L 21 40 L 19 42 L 19 46 L 23 52 L 20 55 L 18 55 L 16 52 L 14 52 L 14 54 L 16 56 L 21 56 L 25 53 L 25 49 L 21 44 L 21 42 L 22 41 L 25 41 L 26 42 L 26 44 L 27 44 Z M 92 37 L 87 38 L 85 41 L 84 49 L 83 50 L 83 54 L 85 53 L 85 50 L 87 47 L 89 48 L 88 50 L 88 55 L 90 55 L 92 53 L 92 52 L 90 51 L 92 44 L 88 44 L 87 43 L 87 41 L 89 39 L 92 39 Z M 167 34 L 165 34 L 164 35 L 164 36 L 160 40 L 160 42 L 162 42 L 164 40 L 166 40 L 167 42 L 169 42 Z M 150 34 L 148 42 L 150 42 L 150 40 L 151 39 L 155 42 L 157 42 L 157 40 L 152 35 L 152 34 Z M 0 0 L 0 92 L 181 92 L 181 0 Z M 2 3 L 3 2 L 179 2 L 180 3 L 180 90 L 179 91 L 3 91 L 2 90 Z" fill="black" fill-rule="evenodd"/>
</svg>
