<svg xmlns="http://www.w3.org/2000/svg" viewBox="0 0 182 93" width="182" height="93">
  <path d="M 174 51 L 171 45 L 166 44 L 163 48 L 163 54 L 161 55 L 159 58 L 157 58 L 156 57 L 156 55 L 159 53 L 160 51 L 160 44 L 156 41 L 154 41 L 153 42 L 126 42 L 125 43 L 121 43 L 119 45 L 119 52 L 120 54 L 123 55 L 124 57 L 122 59 L 119 59 L 117 62 L 115 63 L 116 67 L 114 69 L 112 68 L 113 65 L 111 64 L 111 62 L 109 61 L 109 59 L 108 59 L 105 55 L 103 55 L 102 53 L 95 53 L 87 57 L 84 60 L 82 64 L 82 69 L 81 70 L 79 69 L 77 61 L 76 61 L 75 59 L 73 59 L 72 57 L 70 57 L 69 56 L 66 56 L 65 55 L 57 56 L 55 57 L 54 59 L 52 59 L 52 60 L 50 61 L 50 63 L 47 65 L 43 62 L 43 60 L 42 60 L 41 58 L 39 58 L 35 56 L 25 56 L 24 58 L 22 58 L 21 60 L 19 60 L 19 62 L 17 63 L 17 65 L 15 66 L 15 68 L 14 69 L 14 76 L 17 82 L 26 87 L 34 87 L 38 84 L 42 83 L 42 81 L 44 80 L 44 75 L 46 73 L 48 73 L 49 74 L 50 79 L 54 83 L 56 83 L 59 86 L 62 86 L 63 87 L 65 87 L 67 84 L 69 84 L 70 85 L 75 84 L 81 75 L 83 76 L 83 78 L 85 78 L 88 81 L 88 83 L 90 83 L 91 85 L 96 86 L 97 87 L 101 86 L 104 84 L 106 84 L 106 82 L 108 81 L 111 77 L 114 77 L 115 78 L 115 80 L 116 80 L 119 84 L 127 87 L 131 87 L 132 86 L 138 85 L 139 83 L 141 83 L 141 81 L 143 80 L 143 78 L 144 77 L 148 78 L 149 80 L 151 81 L 151 83 L 153 83 L 154 85 L 160 86 L 161 87 L 165 87 L 166 86 L 171 86 L 172 87 L 174 87 Z M 30 70 L 36 70 L 38 72 L 41 72 L 42 73 L 42 75 L 40 76 L 39 78 L 35 78 L 33 76 L 29 76 L 29 77 L 31 77 L 34 80 L 34 85 L 33 86 L 27 86 L 23 84 L 23 79 L 24 78 L 24 76 L 25 74 Z M 49 70 L 50 69 L 54 69 L 58 67 L 65 69 L 68 75 L 68 82 L 66 83 L 62 81 L 62 79 L 60 78 L 61 76 L 60 72 L 59 72 L 59 77 L 55 81 L 54 81 L 50 76 Z M 158 60 L 160 59 L 164 61 L 166 70 L 167 70 L 167 65 L 171 61 L 172 61 L 173 62 L 173 72 L 171 74 L 169 74 L 168 75 L 161 73 L 158 67 Z M 126 57 L 134 57 L 137 59 L 137 64 L 134 68 L 133 71 L 129 73 L 124 73 L 121 71 L 119 71 L 117 68 L 118 66 L 120 66 L 121 65 L 125 65 L 127 67 L 131 67 L 131 66 L 128 65 L 125 62 L 125 58 Z M 90 57 L 91 57 L 98 65 L 98 73 L 97 75 L 91 78 L 89 78 L 87 74 L 89 73 L 89 71 L 90 70 L 93 69 L 94 66 L 89 69 L 84 68 L 83 67 L 83 65 L 86 60 Z M 135 55 L 136 54 L 151 54 L 153 57 L 149 60 L 149 62 L 148 63 L 144 63 L 143 61 L 139 58 L 136 57 Z M 145 50 L 146 49 L 148 49 L 149 50 L 149 52 L 148 53 L 146 53 L 145 52 Z M 126 46 L 128 47 L 128 51 L 129 52 L 128 54 L 126 54 L 125 53 L 125 47 Z M 121 46 L 123 46 L 124 47 L 124 52 L 123 53 L 120 51 L 120 47 Z M 145 44 L 146 43 L 157 43 L 159 45 L 159 47 L 158 48 L 157 48 L 156 46 L 148 46 L 146 47 L 145 46 Z M 138 44 L 139 43 L 143 43 L 144 45 L 143 46 L 139 46 Z M 127 44 L 128 43 L 135 43 L 136 44 L 136 46 L 135 47 L 132 47 L 131 46 L 128 46 Z M 7 37 L 7 38 L 153 38 L 153 37 Z M 88 34 L 90 34 L 91 32 L 93 32 L 94 34 L 96 33 L 98 33 L 99 34 L 101 34 L 102 33 L 104 34 L 106 34 L 107 33 L 109 34 L 111 33 L 113 34 L 115 34 L 116 33 L 118 34 L 124 34 L 125 33 L 127 34 L 129 33 L 131 34 L 136 34 L 137 33 L 139 34 L 141 33 L 143 34 L 147 34 L 149 29 L 144 29 L 143 30 L 141 30 L 140 29 L 132 29 L 131 30 L 129 29 L 120 29 L 119 30 L 117 29 L 114 29 L 113 30 L 111 29 L 106 29 L 104 30 L 99 28 L 101 25 L 100 25 L 99 27 L 96 25 L 91 31 L 88 31 Z M 43 12 L 40 18 L 35 23 L 35 25 L 36 26 L 39 25 L 49 33 L 51 33 L 50 27 L 56 20 L 56 17 L 55 16 L 47 16 L 46 15 L 46 12 Z M 41 23 L 41 21 L 43 19 L 50 19 L 51 20 L 48 25 L 44 25 Z M 11 11 L 9 13 L 9 21 L 10 22 L 9 27 L 13 27 L 14 29 L 13 30 L 10 30 L 9 31 L 9 33 L 21 32 L 22 34 L 27 34 L 28 33 L 28 28 L 29 27 L 31 27 L 32 25 L 32 20 L 30 20 L 29 19 L 32 14 L 32 12 L 30 11 L 22 11 L 21 12 L 19 11 Z M 21 22 L 24 22 L 25 23 L 25 30 L 24 31 L 22 30 L 17 30 L 16 29 L 17 27 L 21 27 L 21 25 L 20 24 Z M 21 18 L 23 17 L 24 19 L 22 20 Z M 65 10 L 64 11 L 64 14 L 59 16 L 60 18 L 62 18 L 63 19 L 62 22 L 59 26 L 59 28 L 63 27 L 64 28 L 64 34 L 66 34 L 66 26 L 67 25 L 69 26 L 72 25 L 74 28 L 76 27 L 78 28 L 78 30 L 77 31 L 74 31 L 73 32 L 73 34 L 80 34 L 80 19 L 81 18 L 83 18 L 83 16 L 80 14 L 80 10 L 78 10 L 78 14 L 77 15 L 67 15 L 66 14 L 66 10 Z M 74 18 L 77 18 L 78 19 L 78 24 L 77 25 L 75 24 L 73 20 Z M 68 19 L 69 18 L 71 18 L 72 20 L 71 21 L 69 21 Z M 0 0 L 0 92 L 181 92 L 181 0 Z M 1 3 L 2 2 L 179 2 L 180 3 L 180 90 L 179 91 L 2 91 L 1 90 Z" fill="black" fill-rule="evenodd"/>
</svg>
