<svg xmlns="http://www.w3.org/2000/svg" viewBox="0 0 182 93" width="182" height="93">
  <path d="M 174 50 L 171 45 L 166 44 L 164 45 L 164 47 L 163 48 L 163 56 L 160 58 L 157 58 L 156 57 L 156 55 L 158 54 L 160 51 L 160 44 L 156 41 L 154 41 L 153 42 L 125 42 L 124 43 L 121 43 L 119 45 L 119 53 L 122 55 L 127 55 L 128 57 L 125 60 L 121 60 L 121 62 L 119 64 L 119 68 L 117 72 L 115 71 L 115 67 L 112 61 L 107 57 L 105 57 L 104 56 L 96 56 L 95 57 L 93 57 L 87 64 L 87 71 L 86 72 L 84 71 L 82 64 L 77 58 L 75 58 L 74 57 L 65 57 L 64 58 L 62 58 L 57 62 L 54 70 L 52 69 L 52 65 L 51 63 L 46 58 L 44 58 L 43 57 L 33 57 L 27 60 L 24 64 L 24 66 L 23 67 L 23 76 L 25 81 L 32 85 L 42 85 L 44 82 L 47 82 L 50 78 L 51 73 L 52 72 L 54 72 L 55 73 L 54 76 L 59 82 L 62 82 L 64 85 L 69 85 L 71 86 L 72 84 L 78 84 L 81 82 L 81 80 L 83 78 L 83 75 L 85 74 L 94 85 L 100 86 L 101 85 L 105 85 L 110 82 L 114 77 L 114 74 L 116 73 L 118 76 L 118 78 L 121 82 L 124 83 L 126 85 L 137 85 L 142 82 L 146 76 L 146 66 L 143 60 L 136 57 L 135 55 L 136 54 L 151 54 L 154 57 L 153 60 L 151 61 L 149 65 L 149 75 L 151 79 L 158 85 L 169 85 L 172 87 L 174 87 Z M 70 79 L 71 78 L 74 78 L 77 80 L 77 82 L 76 83 L 74 83 L 73 81 L 71 81 Z M 164 83 L 165 78 L 167 75 L 172 75 L 173 76 L 173 80 L 167 84 L 165 84 Z M 94 75 L 96 75 L 97 76 L 97 78 L 95 82 L 93 81 L 93 76 Z M 112 75 L 111 78 L 108 80 L 106 83 L 104 84 L 97 84 L 96 83 L 97 81 L 99 81 L 99 76 L 100 75 L 107 75 L 108 74 L 111 74 Z M 120 68 L 122 68 L 123 67 L 125 68 L 126 71 L 125 72 L 122 72 L 121 74 L 122 75 L 124 75 L 127 73 L 131 79 L 135 82 L 134 84 L 128 84 L 127 83 L 125 83 L 124 81 L 123 81 L 119 77 L 118 72 Z M 26 65 L 27 65 L 29 69 L 32 71 L 32 72 L 30 73 L 30 75 L 28 79 L 27 79 L 24 75 L 24 68 Z M 78 63 L 81 65 L 83 70 L 82 77 L 79 81 L 77 80 L 77 77 L 73 75 Z M 153 62 L 155 63 L 155 65 L 156 66 L 158 66 L 159 67 L 159 69 L 156 74 L 156 77 L 154 79 L 152 78 L 150 74 L 150 66 Z M 141 62 L 144 64 L 144 66 L 145 67 L 145 75 L 143 77 L 142 77 L 140 73 L 137 71 L 140 67 L 140 63 Z M 154 61 L 157 59 L 159 59 L 160 61 L 162 62 L 162 64 L 160 65 L 158 63 L 155 63 Z M 69 59 L 67 62 L 67 66 L 66 67 L 60 67 L 59 68 L 57 68 L 56 67 L 56 66 L 63 59 L 65 58 L 68 58 Z M 35 59 L 36 58 L 42 58 L 46 60 L 51 67 L 51 71 L 49 74 L 45 74 L 44 73 L 44 71 L 45 70 L 47 70 L 48 69 L 48 67 L 45 67 L 42 69 Z M 98 58 L 99 57 L 104 57 L 106 58 L 111 63 L 111 64 L 110 65 L 103 65 Z M 145 50 L 146 49 L 148 49 L 150 50 L 151 52 L 150 53 L 146 53 L 145 52 Z M 126 46 L 128 47 L 128 51 L 129 52 L 128 54 L 126 54 L 125 53 L 125 47 Z M 121 46 L 123 46 L 124 47 L 124 52 L 123 53 L 120 51 L 120 47 Z M 145 44 L 146 43 L 157 43 L 159 47 L 158 48 L 157 48 L 156 46 L 148 46 L 146 47 L 145 46 Z M 138 44 L 139 43 L 142 43 L 143 45 L 142 46 L 139 46 Z M 127 44 L 128 43 L 135 43 L 136 44 L 136 46 L 135 47 L 132 47 L 131 46 L 128 46 Z M 6 37 L 6 38 L 153 38 L 153 37 Z M 112 26 L 112 34 L 113 34 L 113 26 Z M 92 34 L 94 34 L 94 33 L 96 32 L 98 34 L 102 34 L 103 32 L 107 32 L 108 34 L 109 34 L 109 26 L 106 28 L 104 28 L 103 26 L 101 26 L 101 30 L 100 31 L 98 30 L 97 26 L 95 26 Z M 73 34 L 75 33 L 77 34 L 83 34 L 83 28 L 84 27 L 86 27 L 87 28 L 87 34 L 88 34 L 88 28 L 89 27 L 91 27 L 91 26 L 77 26 L 76 27 L 73 26 Z M 79 27 L 81 28 L 81 32 L 80 33 L 77 31 L 77 29 Z M 43 10 L 43 25 L 45 27 L 43 34 L 45 34 L 46 33 L 47 29 L 49 26 L 51 27 L 51 32 L 52 34 L 61 34 L 62 33 L 61 31 L 55 31 L 54 30 L 54 27 L 58 25 L 58 10 Z M 45 17 L 46 16 L 53 16 L 54 18 L 53 19 L 46 19 Z M 24 10 L 24 31 L 25 32 L 33 32 L 33 29 L 27 29 L 26 28 L 26 22 L 29 19 L 32 18 L 32 15 L 27 16 L 26 15 L 26 10 Z M 17 10 L 17 14 L 16 15 L 12 15 L 11 16 L 11 18 L 16 18 L 17 19 L 17 24 L 15 26 L 11 27 L 11 30 L 16 29 L 17 30 L 17 32 L 19 32 L 19 10 Z M 0 1 L 0 92 L 181 92 L 181 0 L 1 0 Z M 1 3 L 2 2 L 179 2 L 180 3 L 180 89 L 178 91 L 3 91 L 1 89 Z" fill="black" fill-rule="evenodd"/>
</svg>
