<svg xmlns="http://www.w3.org/2000/svg" viewBox="0 0 182 93" width="182" height="93">
  <path d="M 110 61 L 110 70 L 112 70 L 112 67 L 113 66 L 115 66 L 116 67 L 116 70 L 145 70 L 145 67 L 146 66 L 148 67 L 148 70 L 159 70 L 161 65 L 163 66 L 163 70 L 166 70 L 167 69 L 169 70 L 173 70 L 174 69 L 174 65 L 173 64 L 169 64 L 167 65 L 164 63 L 164 61 L 163 61 L 163 63 L 162 64 L 155 64 L 154 65 L 152 64 L 141 64 L 140 63 L 138 64 L 131 64 L 129 63 L 125 65 L 124 64 L 119 64 L 118 63 L 118 61 L 116 61 L 116 64 L 115 65 L 113 65 L 112 64 L 112 61 Z M 169 66 L 170 65 L 172 65 L 173 66 L 173 68 L 171 69 Z M 164 66 L 165 65 L 167 65 L 168 66 L 168 68 L 167 69 L 165 69 L 164 68 Z M 156 66 L 158 65 L 159 66 L 159 68 L 157 69 L 156 68 Z M 78 37 L 78 40 L 77 41 L 68 41 L 68 44 L 74 44 L 75 45 L 75 47 L 68 54 L 68 56 L 69 57 L 71 56 L 77 56 L 78 57 L 78 60 L 80 61 L 82 56 L 91 56 L 91 54 L 84 47 L 84 45 L 85 44 L 91 44 L 92 42 L 91 41 L 82 41 L 81 40 L 81 37 Z M 75 52 L 77 51 L 78 53 L 76 54 Z M 81 51 L 83 50 L 84 51 L 84 53 L 82 54 L 81 53 Z M 41 37 L 40 39 L 43 41 L 45 41 L 47 45 L 45 46 L 43 44 L 40 44 L 40 46 L 43 48 L 43 51 L 40 57 L 40 60 L 42 60 L 43 59 L 45 60 L 50 60 L 54 57 L 56 57 L 57 59 L 59 60 L 63 60 L 63 58 L 62 57 L 63 55 L 63 49 L 61 46 L 61 44 L 63 43 L 63 39 L 62 38 L 57 38 L 56 37 L 53 37 L 52 38 L 44 38 L 43 37 Z M 44 55 L 46 54 L 47 55 L 47 57 L 45 58 L 44 57 Z M 4 32 L 4 36 L 6 39 L 6 44 L 9 47 L 11 48 L 15 48 L 19 51 L 22 57 L 22 61 L 19 63 L 19 65 L 18 66 L 7 66 L 7 67 L 30 67 L 31 68 L 31 85 L 33 85 L 33 68 L 34 67 L 106 67 L 106 66 L 34 66 L 33 65 L 33 10 L 31 10 L 31 21 L 30 22 L 23 22 L 21 23 L 21 25 L 29 25 L 31 27 L 31 30 L 30 31 L 25 31 L 23 32 L 21 29 L 19 29 L 16 32 L 14 32 L 10 34 L 8 34 Z M 0 0 L 0 92 L 181 92 L 181 0 Z M 1 3 L 2 2 L 179 2 L 180 3 L 180 90 L 179 91 L 2 91 L 1 90 Z" fill="black" fill-rule="evenodd"/>
</svg>
