<svg xmlns="http://www.w3.org/2000/svg" viewBox="0 0 182 93" width="182" height="93">
  <path d="M 159 44 L 160 49 L 164 49 L 167 52 L 167 55 L 164 58 L 162 58 L 162 60 L 165 60 L 167 59 L 169 56 L 169 51 L 167 48 L 162 47 L 161 46 L 161 44 Z M 131 52 L 132 57 L 136 60 L 138 60 L 139 58 L 135 57 L 133 53 L 134 51 L 137 49 L 142 49 L 144 52 L 144 56 L 146 58 L 149 58 L 150 57 L 154 58 L 156 57 L 157 48 L 155 49 L 155 54 L 154 55 L 152 55 L 151 53 L 147 55 L 146 54 L 146 49 L 145 48 L 142 49 L 141 48 L 141 44 L 140 44 L 138 47 L 134 48 Z M 98 42 L 98 57 L 101 57 L 101 48 L 104 45 L 107 45 L 108 46 L 108 57 L 112 57 L 111 55 L 111 44 L 109 42 Z M 79 42 L 76 45 L 76 46 L 78 46 L 79 47 L 76 51 L 77 56 L 79 57 L 90 57 L 89 55 L 89 43 L 87 42 Z M 80 53 L 82 50 L 85 50 L 86 51 L 84 54 L 81 54 Z M 82 44 L 84 44 L 85 45 L 83 48 L 81 48 L 80 47 Z M 18 42 L 18 57 L 21 57 L 21 48 L 23 45 L 26 45 L 27 46 L 27 57 L 31 57 L 31 47 L 33 45 L 35 45 L 37 47 L 37 57 L 40 57 L 40 44 L 38 42 L 32 42 L 31 43 L 29 42 Z M 62 38 L 62 41 L 61 42 L 59 42 L 59 45 L 61 45 L 62 46 L 62 55 L 64 57 L 69 57 L 69 54 L 67 54 L 66 53 L 66 46 L 67 45 L 69 45 L 69 42 L 67 42 L 66 41 L 66 38 Z M 120 36 L 120 57 L 124 57 L 123 55 L 123 41 L 124 40 L 124 36 Z M 48 36 L 48 40 L 49 41 L 49 55 L 48 57 L 52 57 L 52 36 Z M 141 36 L 141 39 L 142 40 L 144 40 L 143 38 L 144 36 L 146 36 L 147 37 L 147 40 L 154 40 L 154 37 L 155 36 L 157 37 L 157 40 L 159 40 L 159 35 L 157 33 L 153 34 L 151 38 L 150 38 L 148 34 L 146 33 L 142 34 Z M 0 1 L 0 92 L 181 92 L 181 0 L 1 0 Z M 1 3 L 2 2 L 179 2 L 180 3 L 180 90 L 179 91 L 2 91 L 1 90 Z" fill="black" fill-rule="evenodd"/>
</svg>
