<svg xmlns="http://www.w3.org/2000/svg" viewBox="0 0 182 93" width="182" height="93">
  <path d="M 135 51 L 135 53 L 136 54 L 135 57 L 140 57 L 141 56 L 144 58 L 161 57 L 160 55 L 161 51 L 156 52 L 155 54 L 152 54 L 151 56 L 150 56 L 149 54 L 147 54 L 147 55 L 145 56 L 144 54 L 141 54 L 140 52 Z M 153 47 L 152 49 L 153 50 L 155 50 L 155 47 Z M 142 47 L 141 48 L 141 50 L 144 50 L 144 48 Z M 122 42 L 122 55 L 125 55 L 125 42 Z M 82 42 L 82 53 L 83 55 L 85 56 L 87 56 L 88 55 L 93 55 L 93 42 L 90 42 L 90 51 L 88 53 L 86 53 L 84 50 L 84 42 Z M 63 42 L 63 44 L 67 44 L 68 45 L 68 47 L 64 51 L 63 55 L 73 55 L 73 53 L 69 53 L 68 52 L 68 51 L 72 47 L 73 42 Z M 43 42 L 43 52 L 44 54 L 47 56 L 49 55 L 54 55 L 54 42 L 52 42 L 52 50 L 49 53 L 47 53 L 46 52 L 46 42 Z M 25 37 L 23 40 L 23 43 L 24 45 L 28 47 L 30 47 L 32 49 L 32 51 L 30 53 L 26 53 L 24 52 L 23 54 L 28 56 L 33 55 L 35 53 L 35 48 L 34 46 L 28 44 L 26 41 L 28 39 L 32 39 L 34 40 L 34 37 Z M 122 36 L 122 39 L 125 39 L 125 36 Z M 102 36 L 102 55 L 104 55 L 104 52 L 105 51 L 106 51 L 110 55 L 113 55 L 113 54 L 108 49 L 108 47 L 110 46 L 113 42 L 110 42 L 107 45 L 105 45 L 104 44 L 104 36 Z M 156 34 L 154 36 L 152 40 L 152 42 L 154 42 L 156 39 L 157 39 L 159 42 L 161 42 L 158 35 Z M 139 34 L 138 37 L 136 39 L 136 42 L 139 40 L 141 40 L 142 42 L 144 42 L 144 40 L 141 34 Z M 0 1 L 0 92 L 181 92 L 181 0 L 1 0 Z M 1 3 L 2 2 L 179 2 L 180 3 L 180 90 L 179 91 L 2 91 L 1 90 Z" fill="black" fill-rule="evenodd"/>
</svg>
